<svg width="186" height="61" viewBox="0 0 186 61" fill="none" xmlns="http://www.w3.org/2000/svg">
<rect y="0.929199" width="186" height="60" rx="8" fill="#4F9CF9"/>
<path d="M47.7727 28.2019C47.7045 27.6262 47.428 27.1792 46.9432 26.861C46.4583 26.5428 45.8636 26.3837 45.1591 26.3837C44.6439 26.3837 44.1932 26.4671 43.8068 26.6337C43.4242 26.8004 43.125 27.0296 42.9091 27.3212C42.697 27.6129 42.5909 27.9444 42.5909 28.3156C42.5909 28.6262 42.6648 28.8932 42.8125 29.1167C42.964 29.3364 43.1572 29.5201 43.392 29.6678C43.6269 29.8118 43.8731 29.9311 44.1307 30.0258C44.3883 30.1167 44.625 30.1906 44.8409 30.2474L46.0227 30.5656C46.3258 30.6451 46.6629 30.755 47.0341 30.8951C47.4091 31.0353 47.767 31.2265 48.108 31.469C48.4527 31.7076 48.7367 32.0144 48.9602 32.3894C49.1837 32.7644 49.2955 33.2247 49.2955 33.7701C49.2955 34.3989 49.1307 34.9671 48.8011 35.4747C48.4754 35.9822 47.9981 36.3856 47.3693 36.6849C46.7443 36.9841 45.9848 37.1337 45.0909 37.1337C44.2576 37.1337 43.536 36.9993 42.9261 36.7303C42.3201 36.4614 41.8428 36.0864 41.4943 35.6053C41.1496 35.1243 40.9545 34.5656 40.9091 33.9292H42.3636C42.4015 34.3686 42.5492 34.7322 42.8068 35.0201C43.0682 35.3042 43.3977 35.5163 43.7955 35.6565C44.197 35.7928 44.6288 35.861 45.0909 35.861C45.6288 35.861 46.1117 35.7739 46.5398 35.5997C46.9678 35.4216 47.3068 35.1754 47.5568 34.861C47.8068 34.5428 47.9318 34.1716 47.9318 33.7474C47.9318 33.361 47.8239 33.0466 47.608 32.8042C47.392 32.5618 47.108 32.3648 46.7557 32.2133C46.4034 32.0618 46.0227 31.9292 45.6136 31.8156L44.1818 31.4065C43.2727 31.1451 42.553 30.772 42.0227 30.2872C41.4924 29.8023 41.2273 29.1678 41.2273 28.3837C41.2273 27.7322 41.4034 27.164 41.7557 26.6792C42.1117 26.1906 42.589 25.8118 43.1875 25.5428C43.7898 25.2701 44.4621 25.1337 45.2045 25.1337C45.9545 25.1337 46.6212 25.2682 47.2045 25.5372C47.7879 25.8023 48.25 26.1659 48.5909 26.6281C48.9356 27.0902 49.1174 27.6148 49.1364 28.2019H47.7727ZM54.9059 28.2019V29.3383H50.3831V28.2019H54.9059ZM51.7013 26.111H53.0422V34.4292C53.0422 34.808 53.0971 35.0921 53.207 35.2815C53.3206 35.4671 53.4646 35.5921 53.6388 35.6565C53.8168 35.7171 54.0043 35.7474 54.2013 35.7474C54.349 35.7474 54.4702 35.7398 54.5649 35.7247C54.6596 35.7057 54.7354 35.6906 54.7922 35.6792L55.0649 36.8837C54.974 36.9178 54.8471 36.9519 54.6843 36.986C54.5214 37.0239 54.3149 37.0428 54.0649 37.0428C53.6862 37.0428 53.3149 36.9614 52.9513 36.7985C52.5915 36.6356 52.2922 36.3875 52.0536 36.0542C51.8187 35.7209 51.7013 35.3004 51.7013 34.7928V26.111ZM59.1711 37.1337C58.618 37.1337 58.1162 37.0296 57.6654 36.8212C57.2146 36.6091 56.8567 36.3042 56.5915 35.9065C56.3264 35.505 56.1938 35.0201 56.1938 34.4519C56.1938 33.9519 56.2923 33.5466 56.4893 33.236C56.6862 32.9216 56.9495 32.6754 57.279 32.4974C57.6086 32.3194 57.9722 32.1868 58.3699 32.0997C58.7715 32.0087 59.1749 31.9368 59.5802 31.8837C60.1105 31.8156 60.5404 31.7644 60.8699 31.7303C61.2033 31.6925 61.4457 31.63 61.5972 31.5428C61.7525 31.4557 61.8302 31.3042 61.8302 31.0883V31.0428C61.8302 30.4822 61.6768 30.0466 61.3699 29.736C61.0669 29.4254 60.6067 29.2701 59.9893 29.2701C59.3491 29.2701 58.8472 29.4103 58.4836 29.6906C58.1199 29.9709 57.8643 30.2701 57.7165 30.5883L56.4438 30.1337C56.6711 29.6034 56.9741 29.1906 57.3529 28.8951C57.7355 28.5959 58.1521 28.3875 58.6029 28.2701C59.0574 28.1489 59.5044 28.0883 59.9438 28.0883C60.2241 28.0883 60.5461 28.1224 60.9097 28.1906C61.2771 28.255 61.6313 28.3894 61.9722 28.594C62.3169 28.7985 62.6029 29.1072 62.8302 29.5201C63.0574 29.933 63.1711 30.486 63.1711 31.1792V36.9292H61.8302V35.7474H61.762C61.6711 35.9368 61.5196 36.1394 61.3074 36.3553C61.0953 36.5712 60.8131 36.755 60.4609 36.9065C60.1086 37.058 59.6787 37.1337 59.1711 37.1337ZM59.3756 35.9292C59.9059 35.9292 60.3529 35.825 60.7165 35.6167C61.084 35.4084 61.3605 35.1394 61.5461 34.8099C61.7355 34.4803 61.8302 34.1337 61.8302 33.7701V32.5428C61.7734 32.611 61.6484 32.6735 61.4552 32.7303C61.2658 32.7834 61.0461 32.8307 60.7961 32.8724C60.5499 32.9103 60.3093 32.9444 60.0745 32.9747C59.8434 33.0012 59.6559 33.0239 59.512 33.0428C59.1635 33.0883 58.8377 33.1622 58.5347 33.2644C58.2355 33.3629 57.993 33.5125 57.8074 33.7133C57.6256 33.9103 57.5347 34.1792 57.5347 34.5201C57.5347 34.986 57.7071 35.3383 58.0518 35.5769C58.4002 35.8118 58.8415 35.9292 59.3756 35.9292ZM65.2985 36.9292V28.2019H66.594V29.5201H66.6849C66.844 29.0883 67.1319 28.7379 67.5485 28.469C67.9652 28.2 68.4349 28.0656 68.9576 28.0656C69.0561 28.0656 69.1792 28.0675 69.3269 28.0712C69.4747 28.075 69.5864 28.0807 69.6622 28.0883V29.4519C69.6167 29.4406 69.5125 29.4235 69.3497 29.4008C69.1906 29.3743 69.022 29.361 68.844 29.361C68.4197 29.361 68.0409 29.45 67.7076 29.6281C67.3781 29.8023 67.1167 30.0447 66.9235 30.3553C66.7341 30.6622 66.6394 31.0125 66.6394 31.4065V36.9292H65.2985ZM75.274 28.2019V29.3383H70.7512V28.2019H75.274ZM72.0694 26.111H73.4103V34.4292C73.4103 34.808 73.4653 35.0921 73.5751 35.2815C73.6887 35.4671 73.8327 35.5921 74.0069 35.6565C74.185 35.7171 74.3725 35.7474 74.5694 35.7474C74.7172 35.7474 74.8384 35.7398 74.9331 35.7247C75.0278 35.7057 75.1035 35.6906 75.1603 35.6792L75.4331 36.8837C75.3422 36.9178 75.2153 36.9519 75.0524 36.986C74.8895 37.0239 74.6831 37.0428 74.4331 37.0428C74.0543 37.0428 73.6831 36.9614 73.3194 36.7985C72.9596 36.6356 72.6603 36.3875 72.4217 36.0542C72.1869 35.7209 72.0694 35.3004 72.0694 34.7928V26.111ZM84.9465 28.2019V29.3383H80.4238V28.2019H84.9465ZM81.7419 26.111H83.0828V34.4292C83.0828 34.808 83.1378 35.0921 83.2476 35.2815C83.3613 35.4671 83.5052 35.5921 83.6794 35.6565C83.8575 35.7171 84.045 35.7474 84.2419 35.7474C84.3897 35.7474 84.5109 35.7398 84.6056 35.7247C84.7003 35.7057 84.776 35.6906 84.8328 35.6792L85.1056 36.8837C85.0147 36.9178 84.8878 36.9519 84.7249 36.986C84.562 37.0239 84.3556 37.0428 84.1056 37.0428C83.7268 37.0428 83.3556 36.9614 82.9919 36.7985C82.6321 36.6356 82.3328 36.3875 82.0942 36.0542C81.8594 35.7209 81.7419 35.3004 81.7419 34.7928V26.111ZM90.0952 37.111C89.3073 37.111 88.6161 36.9235 88.0214 36.5485C87.4305 36.1735 86.9683 35.6489 86.635 34.9747C86.3055 34.3004 86.1407 33.5125 86.1407 32.611C86.1407 31.7019 86.3055 30.9084 86.635 30.2303C86.9683 29.5523 87.4305 29.0258 88.0214 28.6508C88.6161 28.2758 89.3073 28.0883 90.0952 28.0883C90.8831 28.0883 91.5725 28.2758 92.1634 28.6508C92.7581 29.0258 93.2202 29.5523 93.5498 30.2303C93.8831 30.9084 94.0498 31.7019 94.0498 32.611C94.0498 33.5125 93.8831 34.3004 93.5498 34.9747C93.2202 35.6489 92.7581 36.1735 92.1634 36.5485C91.5725 36.9235 90.8831 37.111 90.0952 37.111ZM90.0952 35.9065C90.6937 35.9065 91.1861 35.7531 91.5725 35.4462C91.9589 35.1394 92.2448 34.736 92.4305 34.236C92.6161 33.736 92.7089 33.1944 92.7089 32.611C92.7089 32.0277 92.6161 31.4841 92.4305 30.9803C92.2448 30.4765 91.9589 30.0694 91.5725 29.7587C91.1861 29.4481 90.6937 29.2928 90.0952 29.2928C89.4967 29.2928 89.0043 29.4481 88.618 29.7587C88.2316 30.0694 87.9456 30.4765 87.76 30.9803C87.5744 31.4841 87.4816 32.0277 87.4816 32.611C87.4816 33.1944 87.5744 33.736 87.76 34.236C87.9456 34.736 88.2316 35.1394 88.618 35.4462C89.0043 35.7531 89.4967 35.9065 90.0952 35.9065ZM99.0721 37.111C98.3448 37.111 97.7028 36.9273 97.146 36.5599C96.5891 36.1887 96.1535 35.6659 95.8391 34.9917C95.5248 34.3137 95.3676 33.5125 95.3676 32.5883C95.3676 31.6716 95.5248 30.8762 95.8391 30.2019C96.1535 29.5277 96.591 29.0069 97.1516 28.6394C97.7123 28.272 98.36 28.0883 99.0948 28.0883C99.663 28.0883 100.112 28.183 100.441 28.3724C100.775 28.558 101.029 28.7701 101.203 29.0087C101.381 29.2436 101.519 29.4368 101.618 29.5883H101.731V25.2928H103.072V36.9292H101.777V35.5883H101.618C101.519 35.7474 101.379 35.9481 101.197 36.1906C101.015 36.4292 100.756 36.6432 100.419 36.8326C100.082 37.0182 99.6327 37.111 99.0721 37.111ZM99.2539 35.9065C99.7918 35.9065 100.246 35.7663 100.618 35.486C100.989 35.2019 101.271 34.8099 101.464 34.3099C101.657 33.8061 101.754 33.2247 101.754 32.5656C101.754 31.914 101.659 31.344 101.47 30.8553C101.28 30.3629 101 29.9803 100.629 29.7076C100.258 29.4311 99.7994 29.2928 99.2539 29.2928C98.6857 29.2928 98.2123 29.4387 97.8335 29.7303C97.4585 30.0182 97.1763 30.4103 96.9869 30.9065C96.8013 31.3989 96.7085 31.9519 96.7085 32.5656C96.7085 33.1868 96.8032 33.7512 96.9926 34.2587C97.1857 34.7625 97.4698 35.164 97.8448 35.4633C98.2236 35.7587 98.6933 35.9065 99.2539 35.9065ZM107.962 37.1337C107.409 37.1337 106.907 37.0296 106.457 36.8212C106.006 36.6091 105.648 36.3042 105.383 35.9065C105.118 35.505 104.985 35.0201 104.985 34.4519C104.985 33.9519 105.084 33.5466 105.281 33.236C105.477 32.9216 105.741 32.6754 106.07 32.4974C106.4 32.3194 106.763 32.1868 107.161 32.0997C107.563 32.0087 107.966 31.9368 108.371 31.8837C108.902 31.8156 109.332 31.7644 109.661 31.7303C109.995 31.6925 110.237 31.63 110.388 31.5428C110.544 31.4557 110.621 31.3042 110.621 31.0883V31.0428C110.621 30.4822 110.468 30.0466 110.161 29.736C109.858 29.4254 109.398 29.2701 108.781 29.2701C108.14 29.2701 107.638 29.4103 107.275 29.6906C106.911 29.9709 106.656 30.2701 106.508 30.5883L105.235 30.1337C105.462 29.6034 105.765 29.1906 106.144 28.8951C106.527 28.5959 106.943 28.3875 107.394 28.2701C107.849 28.1489 108.296 28.0883 108.735 28.0883C109.015 28.0883 109.337 28.1224 109.701 28.1906C110.068 28.255 110.423 28.3894 110.763 28.594C111.108 28.7985 111.394 29.1072 111.621 29.5201C111.849 29.933 111.962 30.486 111.962 31.1792V36.9292H110.621V35.7474H110.553C110.462 35.9368 110.311 36.1394 110.099 36.3553C109.887 36.5712 109.604 36.755 109.252 36.9065C108.9 37.058 108.47 37.1337 107.962 37.1337ZM108.167 35.9292C108.697 35.9292 109.144 35.825 109.508 35.6167C109.875 35.4084 110.152 35.1394 110.337 34.8099C110.527 34.4803 110.621 34.1337 110.621 33.7701V32.5428C110.565 32.611 110.44 32.6735 110.246 32.7303C110.057 32.7834 109.837 32.8307 109.587 32.8724C109.341 32.9103 109.101 32.9444 108.866 32.9747C108.635 33.0012 108.447 33.0239 108.303 33.0428C107.955 33.0883 107.629 33.1622 107.326 33.2644C107.027 33.3629 106.784 33.5125 106.599 33.7133C106.417 33.9103 106.326 34.1792 106.326 34.5201C106.326 34.986 106.498 35.3383 106.843 35.5769C107.191 35.8118 107.633 35.9292 108.167 35.9292ZM114.641 40.2019C114.414 40.2019 114.211 40.183 114.033 40.1451C113.855 40.111 113.732 40.0769 113.664 40.0428L114.005 38.861C114.33 38.9444 114.618 38.9747 114.868 38.9519C115.118 38.9292 115.34 38.8175 115.533 38.6167C115.73 38.4197 115.91 38.0997 116.073 37.6565L116.323 36.9747L113.095 28.2019H114.55L116.959 35.1565H117.05L119.459 28.2019H120.914L117.209 38.2019C117.042 38.6527 116.836 39.0258 116.59 39.3212C116.344 39.6205 116.058 39.8421 115.732 39.986C115.41 40.13 115.046 40.2019 114.641 40.2019Z" fill="white"/>
<path d="M132 30.9292H146" stroke="white" stroke-linecap="round" stroke-linejoin="round"/>
<path d="M139 23.9292L146 30.9292L139 37.9292" stroke="white" stroke-linecap="round" stroke-linejoin="round"/>
</svg>
